<?xml version="1.0" encoding="UTF-8" standalone="no"?>
<!DOCTYPE svg PUBLIC "-//W3C//DTD SVG 1.1//EN"
 "http://www.w3.org/Graphics/SVG/1.1/DTD/svg11.dtd">
<!-- Generated by graphviz version 2.43.0 (0)
 -->
<!-- Title: %3 Pages: 1 -->
<svg width="1406pt" height="206pt"
 viewBox="0.00 0.00 1405.60 206.00" xmlns="http://www.w3.org/2000/svg" xmlns:xlink="http://www.w3.org/1999/xlink">
<g id="graph0" class="graph" transform="scale(1 1) rotate(0) translate(4 202)">
<title>%3</title>
<polygon fill="white" stroke="transparent" points="-4,4 -4,-202 1401.6,-202 1401.6,4 -4,4"/>
<!-- UI -->
<g id="node1" class="node">
<title>UI</title>
<ellipse fill="none" stroke="black" cx="77.99" cy="-99" rx="77.99" ry="18"/>
<text text-anchor="middle" x="77.99" y="-95.3" font-family="Times,serif" font-size="14.00">User Interface</text>
</g>
<!-- WebServer -->
<g id="node2" class="node">
<title>WebServer</title>
<ellipse fill="none" stroke="black" cx="256.98" cy="-99" rx="64.99" ry="18"/>
<text text-anchor="middle" x="256.98" y="-95.3" font-family="Times,serif" font-size="14.00">Web Server</text>
</g>
<!-- UI&#45;&gt;WebServer -->
<g id="edge1" class="edge">
<title>UI&#45;&gt;WebServer</title>
<path fill="none" stroke="black" d="M156.11,-99C164.58,-99 173.2,-99 181.65,-99"/>
<polygon fill="black" stroke="black" points="181.83,-102.5 191.83,-99 181.83,-95.5 181.83,-102.5"/>
</g>
<!-- APIGateway -->
<g id="node3" class="node">
<title>APIGateway</title>
<ellipse fill="none" stroke="black" cx="428.17" cy="-99" rx="70.39" ry="18"/>
<text text-anchor="middle" x="428.17" y="-95.3" font-family="Times,serif" font-size="14.00">API Gateway</text>
</g>
<!-- WebServer&#45;&gt;APIGateway -->
<g id="edge2" class="edge">
<title>WebServer&#45;&gt;APIGateway</title>
<path fill="none" stroke="black" d="M322.43,-99C330.66,-99 339.16,-99 347.6,-99"/>
<polygon fill="black" stroke="black" points="347.83,-102.5 357.83,-99 347.83,-95.5 347.83,-102.5"/>
</g>
<!-- Login -->
<g id="node4" class="node">
<title>Login</title>
<ellipse fill="none" stroke="black" cx="615.6" cy="-126" rx="74.19" ry="18"/>
<text text-anchor="middle" x="615.6" y="-122.3" font-family="Times,serif" font-size="14.00">Login Service</text>
</g>
<!-- APIGateway&#45;&gt;Login -->
<g id="edge3" class="edge">
<title>APIGateway&#45;&gt;Login</title>
<path fill="none" stroke="black" d="M489.63,-107.8C506.24,-110.22 524.43,-112.87 541.66,-115.38"/>
<polygon fill="black" stroke="black" points="541.28,-118.86 551.68,-116.84 542.29,-111.93 541.28,-118.86"/>
</g>
<!-- Signup -->
<g id="node5" class="node">
<title>Signup</title>
<ellipse fill="none" stroke="black" cx="615.6" cy="-72" rx="81.49" ry="18"/>
<text text-anchor="middle" x="615.6" y="-68.3" font-family="Times,serif" font-size="14.00">Signup Service</text>
</g>
<!-- APIGateway&#45;&gt;Signup -->
<g id="edge4" class="edge">
<title>APIGateway&#45;&gt;Signup</title>
<path fill="none" stroke="black" d="M489.63,-90.2C504.72,-88 521.1,-85.61 536.89,-83.31"/>
<polygon fill="black" stroke="black" points="537.77,-86.72 547.17,-81.82 536.77,-79.8 537.77,-86.72"/>
</g>
<!-- Auth -->
<g id="node6" class="node">
<title>Auth</title>
<ellipse fill="none" stroke="black" cx="849.19" cy="-99" rx="116.18" ry="18"/>
<text text-anchor="middle" x="849.19" y="-95.3" font-family="Times,serif" font-size="14.00">Authentication Service</text>
</g>
<!-- Login&#45;&gt;Auth -->
<g id="edge5" class="edge">
<title>Login&#45;&gt;Auth</title>
<path fill="none" stroke="black" d="M682.66,-118.3C702.28,-116.01 724.25,-113.45 745.61,-110.96"/>
<polygon fill="black" stroke="black" points="746.18,-114.42 755.71,-109.78 745.37,-107.46 746.18,-114.42"/>
</g>
<!-- Signup&#45;&gt;Auth -->
<g id="edge6" class="edge">
<title>Signup&#45;&gt;Auth</title>
<path fill="none" stroke="black" d="M687.98,-80.32C706.2,-82.45 726.15,-84.77 745.6,-87.04"/>
<polygon fill="black" stroke="black" points="745.37,-90.54 755.71,-88.22 746.18,-83.58 745.37,-90.54"/>
</g>
<!-- MarkComplete -->
<g id="node7" class="node">
<title>MarkComplete</title>
<ellipse fill="none" stroke="black" cx="1127.62" cy="-180" rx="126.18" ry="18"/>
<text text-anchor="middle" x="1127.62" y="-176.3" font-family="Times,serif" font-size="14.00">Mark Pages as Complete</text>
</g>
<!-- Auth&#45;&gt;MarkComplete -->
<g id="edge7" class="edge">
<title>Auth&#45;&gt;MarkComplete</title>
<path fill="none" stroke="black" d="M892.44,-115.74C922.53,-127.26 964.1,-142.33 1001.53,-153 1014.51,-156.7 1028.37,-160.16 1041.97,-163.3"/>
<polygon fill="black" stroke="black" points="1041.28,-166.73 1051.81,-165.52 1042.82,-159.9 1041.28,-166.73"/>
</g>
<!-- Enroll -->
<g id="node8" class="node">
<title>Enroll</title>
<ellipse fill="none" stroke="black" cx="1127.62" cy="-126" rx="86.38" ry="18"/>
<text text-anchor="middle" x="1127.62" y="-122.3" font-family="Times,serif" font-size="14.00">Enroll in Course</text>
</g>
<!-- Auth&#45;&gt;Enroll -->
<g id="edge8" class="edge">
<title>Auth&#45;&gt;Enroll</title>
<path fill="none" stroke="black" d="M948.03,-108.56C977.63,-111.45 1009.93,-114.6 1038.82,-117.42"/>
<polygon fill="black" stroke="black" points="1038.59,-120.92 1048.89,-118.41 1039.27,-113.95 1038.59,-120.92"/>
</g>
<!-- GenerateCert -->
<g id="node9" class="node">
<title>GenerateCert</title>
<ellipse fill="none" stroke="black" cx="1127.62" cy="-72" rx="105.08" ry="18"/>
<text text-anchor="middle" x="1127.62" y="-68.3" font-family="Times,serif" font-size="14.00">Generate Certificate</text>
</g>
<!-- Auth&#45;&gt;GenerateCert -->
<g id="edge9" class="edge">
<title>Auth&#45;&gt;GenerateCert</title>
<path fill="none" stroke="black" d="M948.03,-89.44C973.26,-86.98 1000.46,-84.32 1025.83,-81.84"/>
<polygon fill="black" stroke="black" points="1026.22,-85.32 1035.83,-80.87 1025.54,-78.36 1026.22,-85.32"/>
</g>
<!-- Profile -->
<g id="node10" class="node">
<title>Profile</title>
<ellipse fill="none" stroke="black" cx="1127.62" cy="-18" rx="75.29" ry="18"/>
<text text-anchor="middle" x="1127.62" y="-14.3" font-family="Times,serif" font-size="14.00">Profile Access</text>
</g>
<!-- Auth&#45;&gt;Profile -->
<g id="edge10" class="edge">
<title>Auth&#45;&gt;Profile</title>
<path fill="none" stroke="black" d="M892.44,-82.26C922.53,-70.74 964.1,-55.67 1001.53,-45 1019.55,-39.86 1039.29,-35.18 1057.64,-31.21"/>
<polygon fill="black" stroke="black" points="1058.62,-34.58 1067.68,-29.07 1057.17,-27.73 1058.62,-34.58"/>
</g>
<!-- Database -->
<g id="node11" class="node">
<title>Database</title>
<ellipse fill="none" stroke="black" cx="1343.65" cy="-126" rx="53.89" ry="18"/>
<text text-anchor="middle" x="1343.65" y="-122.3" font-family="Times,serif" font-size="14.00">Database</text>
</g>
<!-- Enroll&#45;&gt;Database -->
<g id="edge11" class="edge">
<title>Enroll&#45;&gt;Database</title>
<path fill="none" stroke="black" d="M1214.13,-126C1235.95,-126 1259,-126 1279.47,-126"/>
<polygon fill="black" stroke="black" points="1279.61,-129.5 1289.61,-126 1279.61,-122.5 1279.61,-129.5"/>
</g>
</g>
</svg>
